<svg width="364" height="352" fill="none" xmlns="http://www.w3.org/2000/svg"><path d="M215.946 12.899c16.98-16.617 44.128-16.617 61.108 0a43.687 43.687 0 0044.944 10.025l2.503-.873c21.695-7.569 45.419 3.866 53.014 25.552a41.64 41.64 0 0035.521 27.704l3.555.324c22.461 2.046 38.674 22.42 35.625 44.766a39.582 39.582 0 0019.518 39.679l1.565.898c19.768 11.344 25.639 37.147 12.726 55.927a39.003 39.003 0 000 44.198c12.913 18.78 7.042 44.583-12.726 55.927l-1.565.898a39.582 39.582 0 00-19.518 39.679c3.049 22.347-13.164 42.72-35.625 44.766l-3.555.324a41.643 41.643 0 00-35.521 27.704c-7.595 21.686-31.319 33.121-53.014 25.552l-2.503-.873a43.687 43.687 0 00-44.944 10.025c-16.98 16.617-44.128 16.617-61.108 0a43.687 43.687 0 00-44.944-10.025l-2.503.873c-21.695 7.569-45.419-3.866-53.014-25.552a41.643 41.643 0 00-35.52-27.704l-3.556-.324c-22.461-2.046-38.674-22.419-35.626-44.766a39.581 39.581 0 00-19.517-39.679l-1.565-.898C-.067 305.682-5.94 279.879 6.975 261.099a39.003 39.003 0 000-44.198c-12.913-18.78-7.042-44.583 12.726-55.927l1.565-.898a39.581 39.581 0 0019.517-39.679C37.735 98.05 53.948 77.677 76.41 75.631l3.555-.324a41.64 41.64 0 0035.521-27.704c7.595-21.686 31.319-33.12 53.014-25.553l2.503.874a43.687 43.687 0 0044.944-10.025z" fill="#19686A"/></svg>