<svg width="70" height="70" viewBox="0 0 70 70" fill="none" xmlns="http://www.w3.org/2000/svg">
<path d="M0.991336 23.742C-0.993245 10.4453 10.4438 -0.983431 23.739 1.01086L32.0332 2.25498C34.0001 2.55001 35.9999 2.55001 37.9668 2.25498L46.2406 1.01392C59.5418 -0.981275 70.9813 10.4582 68.9861 23.7595L67.745 32.0332C67.45 34.0001 67.45 35.9999 67.745 37.9668L68.9799 46.199C70.9769 59.5126 59.5156 70.9569 46.205 68.9402L38.3464 67.7495C36.3798 67.4515 34.3797 67.4486 32.4123 67.7408L23.7452 69.0279C10.447 71.0029 -0.973481 59.5574 1.03062 46.2635L2.25278 38.1566C2.54927 36.1899 2.55074 34.1899 2.25713 32.2228L0.991336 23.742Z" fill="#19686A"/>
</svg>
