<svg width="364" height="352" viewBox="0 0 364 352" fill="none" xmlns="http://www.w3.org/2000/svg">
<path d="M215.946 12.899C232.926 -3.71758 260.074 -3.71758 277.054 12.899V12.899C288.916 24.5058 306.329 28.3898 321.998 22.9236L324.501 22.0505C346.196 14.4823 369.92 25.9173 377.515 47.6026V47.6026C382.907 62.9974 396.791 73.8263 413.036 75.3066L416.591 75.6306C439.052 77.6773 455.265 98.0502 452.216 120.397V120.397C450.039 136.363 457.757 152.055 471.734 160.076L473.299 160.974C493.067 172.318 498.938 198.121 486.025 216.901V216.901C476.872 230.212 476.872 247.788 486.025 261.099V261.099C498.938 279.879 493.067 305.682 473.299 317.026L471.734 317.924C457.757 325.945 450.039 341.637 452.216 357.603V357.603C455.265 379.95 439.052 400.323 416.591 402.369L413.036 402.693C396.791 404.174 382.907 415.003 377.515 430.397V430.397C369.92 452.083 346.196 463.518 324.501 455.949L321.998 455.076C306.329 449.61 288.916 453.494 277.054 465.101V465.101C260.074 481.718 232.926 481.718 215.946 465.101V465.101C204.084 453.494 186.671 449.61 171.002 455.076L168.499 455.949C146.804 463.518 123.08 452.083 115.485 430.397V430.397C110.093 415.003 96.2087 404.174 79.9643 402.693L76.4086 402.369C53.948 400.323 37.7352 379.95 40.7835 357.603V357.603C42.9613 341.637 35.2425 325.945 21.2663 317.924L19.7006 317.026C-0.0669938 305.682 -5.93834 279.879 6.97503 261.099V261.099C16.1279 247.788 16.1279 230.212 6.97503 216.901V216.901C-5.93834 198.121 -0.0669792 172.318 19.7006 160.974L21.2663 160.076C35.2425 152.055 42.9613 136.363 40.7835 120.397V120.397C37.7352 98.0502 53.9481 77.6773 76.4086 75.6306L79.9643 75.3066C96.2087 73.8263 110.093 62.9974 115.485 47.6026V47.6026C123.08 25.9173 146.804 14.4823 168.499 22.0505L171.002 22.9236C186.671 28.3898 204.084 24.5058 215.946 12.899V12.899Z" fill="#19686A"/>
</svg>
