<svg width="156" height="158" viewBox="0 0 156 158" fill="none" xmlns="http://www.w3.org/2000/svg">
<path d="M78 0L92.5907 15.074L112.277 7.82346L118.882 27.7353L139.765 29.7443L137.077 50.5502L155.019 61.4208L143.57 79L155.019 96.5792L137.077 107.45L139.765 128.256L118.882 130.265L112.277 150.177L92.5907 142.926L78 158L63.4093 142.926L43.7232 150.177L37.1178 130.265L16.2353 128.256L18.9235 107.45L0.980698 96.5792L12.43 79L0.980698 61.4208L18.9235 50.5502L16.2353 29.7443L37.1178 27.7353L43.7232 7.82346L63.4093 15.074L78 0Z" fill="#19686A"/>
</svg>
