<svg width="198" height="202" viewBox="0 0 198 202" fill="none" xmlns="http://www.w3.org/2000/svg">
<path d="M99 0L117.654 19.2718L142.822 10.0021L151.267 35.4591L177.965 38.0275L174.528 64.6275L197.468 78.5254L182.83 101L197.468 123.475L174.528 137.372L177.965 163.972L151.267 166.541L142.822 191.998L117.654 182.728L99 202L80.3461 182.728L55.1777 191.998L46.7328 166.541L20.035 163.972L23.4718 137.372L0.53228 123.475L15.17 101L0.53228 78.5254L23.4718 64.6275L20.035 38.0275L46.7328 35.4591L55.1777 10.0021L80.3461 19.2718L99 0Z" fill="#19686A"/>
</svg>
