<svg width="323" height="313" viewBox="0 0 323 313" fill="none" xmlns="http://www.w3.org/2000/svg">
<path d="M141.498 8.56244C152.616 -2.3112 170.384 -2.3112 181.502 8.56244C189.268 16.1575 200.665 18.6991 210.922 15.1229L212.576 14.5461C226.773 9.59628 242.296 17.0783 247.268 31.2672C250.799 41.3415 259.885 48.4272 270.516 49.3953L272.866 49.6094C287.561 50.9477 298.168 64.2765 296.172 78.8961C294.747 89.3434 299.798 99.6118 308.945 104.858L309.98 105.451C322.916 112.87 326.757 129.755 318.305 142.04C312.314 150.749 312.314 162.251 318.305 170.96C326.757 183.245 322.916 200.13 309.98 207.549L308.945 208.142C299.798 213.388 294.747 223.657 296.172 234.104C298.168 248.723 287.561 262.052 272.866 263.391L270.516 263.605C259.885 264.573 250.799 271.659 247.268 281.733C242.296 295.922 226.773 303.404 212.576 298.454L210.922 297.877C200.665 294.301 189.268 296.842 181.502 304.438C170.384 315.311 152.616 315.311 141.498 304.438C133.732 296.842 122.335 294.301 112.078 297.877L110.424 298.454C96.2272 303.404 80.7037 295.922 75.7316 281.733C72.2014 271.659 63.1146 264.573 52.4837 263.605L50.1335 263.391C35.4392 262.052 24.8323 248.723 26.8276 234.104C28.2534 223.657 23.2016 213.388 14.055 208.142L13.02 207.549C0.0844278 200.13 -3.75733 183.245 4.69491 170.96C10.6864 162.251 10.6864 150.749 4.69491 142.04C-3.75733 129.755 0.0844154 112.87 13.02 105.451L14.055 104.858C23.2016 99.6118 28.2534 89.3434 26.8276 78.8961C24.8323 64.2765 35.4392 50.9477 50.1335 49.6094L52.4837 49.3953C63.1146 48.4272 72.2014 41.3415 75.7316 31.2672C80.7037 17.0783 96.2272 9.59628 110.424 14.5461L112.078 15.1229C122.335 18.6991 133.732 16.1575 141.498 8.56244Z" fill="#19686A"/>
</svg>
